REM DIRINDEX 1\2,1\3\5,1\3\6,1\4\7,1\4\8
REM DIRNAME folder01,folder02,folder03,folder04,folder05,folder06,folder07,folder08
TITLE ""
FILE "JE_15.mp3" MP3
  TRACK 01 AUDIO
    TITLE "0:"
    INDEX 01 00:00:00
  TRACK 02 AUDIO
    TITLE "7:cjc139_3669"
    INDEX 01 00:00:17
  TRACK 03 AUDIO
    TITLE "0:"
    INDEX 01 00:03:74
  TRACK 04 AUDIO
    TITLE "8:cjc139_3670"
    INDEX 01 00:06:55
  TRACK 05 AUDIO
    TITLE "0:"
    INDEX 01 00:09:69
  TRACK 06 AUDIO
    TITLE "7:cjc139_3671"
    INDEX 01 00:12:54
  TRACK 07 AUDIO
    TITLE "0:"
    INDEX 01 00:15:72
  TRACK 08 AUDIO
    TITLE "8:cjc139_3672"
    INDEX 01 00:18:56
  TRACK 09 AUDIO
    TITLE "0:"
    INDEX 01 00:21:62
  TRACK 10 AUDIO
    TITLE "7:cjc139_3673"
    INDEX 01 00:24:45
  TRACK 11 AUDIO
    TITLE "0:"
    INDEX 01 00:28:23
  TRACK 12 AUDIO
    TITLE "8:cjc139_3674"
    INDEX 01 00:31:10
  TRACK 13 AUDIO
    TITLE "0:"
    INDEX 01 00:34:22
  TRACK 14 AUDIO
    TITLE "7:cjc139_3675"
    INDEX 01 00:37:07
  TRACK 15 AUDIO
    TITLE "0:"
    INDEX 01 00:40:30
  TRACK 16 AUDIO
    TITLE "8:cjc139_3676"
    INDEX 01 00:43:15
  TRACK 17 AUDIO
    TITLE "0:"
    INDEX 01 00:46:43
  TRACK 18 AUDIO
    TITLE "7:cjc139_3677"
    INDEX 01 00:49:29
  TRACK 19 AUDIO
    TITLE "0:"
    INDEX 01 00:53:39
  TRACK 20 AUDIO
    TITLE "8:cjc139_3678"
    INDEX 01 00:56:25
  TRACK 21 AUDIO
    TITLE "0:"
    INDEX 01 00:59:36
  TRACK 22 AUDIO
    TITLE "7:cjc139_3679"
    INDEX 01 01:02:22
  TRACK 23 AUDIO
    TITLE "0:"
    INDEX 01 01:05:17
  TRACK 24 AUDIO
    TITLE "8:cjc139_3680"
    INDEX 01 01:08:03
  TRACK 25 AUDIO
    TITLE "0:"
    INDEX 01 01:11:07
  TRACK 26 AUDIO
    TITLE "7:cjc139_3681"
    INDEX 01 01:13:69
  TRACK 27 AUDIO
    TITLE "0:"
    INDEX 01 01:18:15
  TRACK 28 AUDIO
    TITLE "8:cjc139_3682"
    INDEX 01 01:21:00
  TRACK 29 AUDIO
    TITLE "0:"
    INDEX 01 01:24:36
  TRACK 30 AUDIO
    TITLE "7:cjc139_3683"
    INDEX 01 01:27:20
  TRACK 31 AUDIO
    TITLE "0:"
    INDEX 01 01:31:16
  TRACK 32 AUDIO
    TITLE "8:cjc139_3684"
    INDEX 01 01:34:03
  TRACK 33 AUDIO
    TITLE "0:"
    INDEX 01 01:37:30
  TRACK 34 AUDIO
    TITLE "7:cjc139_3685"
    INDEX 01 01:40:19
  TRACK 35 AUDIO
    TITLE "0:"
    INDEX 01 01:44:09
  TRACK 36 AUDIO
    TITLE "8:cjc139_3686"
    INDEX 01 01:46:68
  TRACK 37 AUDIO
    TITLE "0:"
    INDEX 01 01:49:49
  TRACK 38 AUDIO
    TITLE "7:cjc139_3687"
    INDEX 01 01:52:36
  TRACK 39 AUDIO
    TITLE "0:"
    INDEX 01 01:56:18
  TRACK 40 AUDIO
    TITLE "8:cjc139_3688"
    INDEX 01 01:59:04
  TRACK 41 AUDIO
    TITLE "0:"
    INDEX 01 02:01:23
  TRACK 42 AUDIO
    TITLE "7:cjc139_3689"
    INDEX 01 02:04:08
  TRACK 43 AUDIO
    TITLE "0:"
    INDEX 01 02:08:01
  TRACK 44 AUDIO
    TITLE "8:cjc139_3690"
    INDEX 01 02:10:59
  TRACK 45 AUDIO
    TITLE "0:"
    INDEX 01 02:13:26
  TRACK 46 AUDIO
    TITLE "7:cjc139_3691"
    INDEX 01 02:16:11
  TRACK 47 AUDIO
    TITLE "0:"
    INDEX 01 02:19:40
  TRACK 48 AUDIO
    TITLE "8:cjc139_3692"
    INDEX 01 02:22:23
  TRACK 49 AUDIO
    TITLE "0:"
    INDEX 01 02:24:59
  TRACK 50 AUDIO
    TITLE "8:cjc139_3693"
    INDEX 01 02:26:09
  TRACK 51 AUDIO
    TITLE "0:"
    INDEX 01 02:28:57
  TRACK 52 AUDIO
    TITLE "7:cjc139_3694"
    INDEX 01 02:31:44
  TRACK 53 AUDIO
    TITLE "0:"
    INDEX 01 02:34:58
  TRACK 54 AUDIO
    TITLE "8:cjc139_3695"
    INDEX 01 02:37:42
  TRACK 55 AUDIO
    TITLE "0:"
    INDEX 01 02:40:01
  TRACK 56 AUDIO
    TITLE "7:cjc139_3696"
    INDEX 01 02:42:63
  TRACK 57 AUDIO
    TITLE "0:"
    INDEX 01 02:45:46
  TRACK 58 AUDIO
    TITLE "8:cjc139_3697"
    INDEX 01 02:48:32
  TRACK 59 AUDIO
    TITLE "0:"
    INDEX 01 02:50:55
  TRACK 60 AUDIO
    TITLE "7:cjc139_3698"
    INDEX 01 02:53:41
  TRACK 61 AUDIO
    TITLE "0:"
    INDEX 01 02:56:63
  TRACK 62 AUDIO
    TITLE "8:cjc139_3699"
    INDEX 01 02:59:48
  TRACK 63 AUDIO
    TITLE "0:"
    INDEX 01 03:02:30
  TRACK 64 AUDIO
    TITLE "7:cjc139_3700"
    INDEX 01 03:05:17
  TRACK 65 AUDIO
    TITLE "0:"
    INDEX 01 03:08:17
  TRACK 66 AUDIO
    TITLE "8:cjc139_3701"
    INDEX 01 03:11:00
  TRACK 67 AUDIO
    TITLE "0:"
    INDEX 01 03:13:42
  TRACK 68 AUDIO
    TITLE "7:cjc139_3702"
    INDEX 01 03:16:29
  TRACK 69 AUDIO
    TITLE "0:"
    INDEX 01 03:20:30
  TRACK 70 AUDIO
    TITLE "8:cjc139_3703"
    INDEX 01 03:23:15
  TRACK 71 AUDIO
    TITLE "0:"
    INDEX 01 03:26:37
  TRACK 72 AUDIO
    TITLE "7:cjc139_3704"
    INDEX 01 03:29:20
  TRACK 73 AUDIO
    TITLE "0:"
    INDEX 01 03:32:61
  TRACK 74 AUDIO
    TITLE "8:cjc139_3705"
    INDEX 01 03:35:48
  TRACK 75 AUDIO
    TITLE "0:"
    INDEX 01 03:38:71
  TRACK 76 AUDIO
    TITLE "7:cjc139_3706"
    INDEX 01 03:41:58
  TRACK 77 AUDIO
    TITLE "0:"
    INDEX 01 03:45:21
  TRACK 78 AUDIO
    TITLE "8:cjc139_3707"
    INDEX 01 03:48:05
  TRACK 79 AUDIO
    TITLE "0:"
    INDEX 01 03:51:25
  TRACK 80 AUDIO
    TITLE "7:cjc139_3708"
    INDEX 01 03:54:14
  TRACK 81 AUDIO
    TITLE "0:"
    INDEX 01 03:57:26
  TRACK 82 AUDIO
    TITLE "8:cjc139_3709"
    INDEX 01 04:00:12
  TRACK 83 AUDIO
    TITLE "0:"
    INDEX 01 04:03:36
  TRACK 84 AUDIO
    TITLE "7:cjc139_3710"
    INDEX 01 04:06:19
  TRACK 85 AUDIO
    TITLE "0:"
    INDEX 01 04:11:34
  TRACK 86 AUDIO
    TITLE "8:cjc139_3711"
    INDEX 01 04:14:20
  TRACK 87 AUDIO
    TITLE "0:"
    INDEX 01 04:18:55
  TRACK 88 AUDIO
    TITLE "7:cjc139_3712"
    INDEX 01 04:21:40
  TRACK 89 AUDIO
    TITLE "0:"
    INDEX 01 04:26:23
  TRACK 90 AUDIO
    TITLE "8:cjc139_3713"
    INDEX 01 04:29:08
  TRACK 91 AUDIO
    TITLE "0:"
    INDEX 01 04:34:23
  TRACK 92 AUDIO
    TITLE "7:cjc139_3714"
    INDEX 01 04:37:11
  TRACK 93 AUDIO
    TITLE "0:"
    INDEX 01 04:41:03
  TRACK 94 AUDIO
    TITLE "8:cjc139_3715"
    INDEX 01 04:43:63
  TRACK 95 AUDIO
    TITLE "0:"
    INDEX 01 04:46:67
  TRACK 96 AUDIO
    TITLE "7:cjc139_3716"
    INDEX 01 04:49:54
  TRACK 97 AUDIO
    TITLE "0:"
    INDEX 01 04:53:30
  TRACK 98 AUDIO
    TITLE "8:cjc139_3717"
    INDEX 01 04:56:15
  TRACK 99 AUDIO
    TITLE "0:"
    INDEX 01 04:59:68
